<svg width="68" height="65" viewBox="0 0 68 65" fill="none" xmlns="http://www.w3.org/2000/svg">
<path d="M38.5 5C38.5 2.51472 36.4853 0.5 34 0.5C31.5147 0.5 29.5 2.51472 29.5 5L38.5 5ZM30.818 63.182C32.5754 64.9393 35.4246 64.9393 37.182 63.182L65.8198 34.5442C67.5772 32.7868 67.5772 29.9376 65.8198 28.1802C64.0624 26.4228 61.2132 26.4228 59.4558 28.1802L34 53.636L8.54416 28.1802C6.7868 26.4228 3.93756 26.4228 2.1802 28.1802C0.422837 29.9376 0.422837 32.7868 2.1802 34.5442L30.818 63.182ZM29.5 5L29.5 60L38.5 60L38.5 5L29.5 5Z" fill="black"/>
</svg>
