<svg width="68" height="65" viewBox="0 0 68 65" fill="none" xmlns="http://www.w3.org/2000/svg">
<path d="M29.5 60C29.5 62.4853 31.5147 64.5 34 64.5C36.4853 64.5 38.5 62.4853 38.5 60H29.5ZM37.182 1.81802C35.4246 0.0606602 32.5754 0.0606602 30.818 1.81802L2.18019 30.4558C0.422836 32.2132 0.422836 35.0624 2.18019 36.8198C3.93755 38.5772 6.7868 38.5772 8.54416 36.8198L34 11.364L59.4558 36.8198C61.2132 38.5772 64.0624 38.5772 65.8198 36.8198C67.5772 35.0624 67.5772 32.2132 65.8198 30.4558L37.182 1.81802ZM38.5 60L38.5 5H29.5L29.5 60H38.5Z" fill="#617E88"/>
</svg>
