<svg width="258" height="65" viewBox="0 0 258 65" fill="none" xmlns="http://www.w3.org/2000/svg">
<path d="M11.5479 63.3242V36.6172H41.6143V26.833H11.5479V13.1436H46.8213V3.10742H0V63.3242H11.5479Z" fill="white"/>
<path d="M81.5068 63.2822V58.0332C81.1429 58.5371 80.709 59.041 80.2051 59.5449C79.7012 60.0488 79.1133 60.5247 78.4414 60.9727C77.7975 61.3926 77.0697 61.7985 76.2578 62.1904C75.474 62.5544 74.5921 62.8763 73.6123 63.1562C72.6325 63.4362 71.5687 63.6462 70.4209 63.7861C69.3011 63.9541 68.0833 64.0381 66.7676 64.0381C63.2122 64.0381 60.0908 63.5062 57.4033 62.4424C54.7158 61.3506 52.4622 59.8529 50.6426 57.9492C48.8229 56.0456 47.4372 53.778 46.4854 51.1465C45.5615 48.515 45.0996 45.6455 45.0996 42.5381V40.8584C45.0996 37.891 45.5615 35.0915 46.4854 32.46C47.4372 29.8285 48.8229 27.5189 50.6426 25.5312C52.4622 23.5436 54.7158 21.9759 57.4033 20.8281C60.0908 19.6523 63.2122 19.0645 66.7676 19.0645C68.0833 19.0645 69.3151 19.1484 70.4629 19.3164C71.6107 19.4564 72.6605 19.6663 73.6123 19.9463C74.5921 20.1982 75.474 20.5202 76.2578 20.9121C77.0697 21.276 77.7975 21.682 78.4414 22.1299C79.1133 22.5498 79.7012 23.0117 80.2051 23.5156C80.709 24.0195 81.1429 24.5234 81.5068 25.0273V19.8203H92.5088V63.2822H81.5068ZM68.9092 55.5137C71.0928 55.5137 72.9824 55.1777 74.5781 54.5059C76.1738 53.834 77.4756 52.9102 78.4834 51.7344C79.5192 50.5586 80.2751 49.1729 80.751 47.5771C81.2549 45.9535 81.5068 44.2038 81.5068 42.3281V40.7744C81.5068 38.8988 81.2549 37.1631 80.751 35.5674C80.2751 33.9717 79.5192 32.5859 78.4834 31.4102C77.4756 30.2064 76.1738 29.2686 74.5781 28.5967C72.9824 27.8968 71.0928 27.5469 68.9092 27.5469C66.6976 27.5469 64.8079 27.8828 63.2402 28.5547C61.6725 29.1986 60.3848 30.1084 59.377 31.2842C58.3691 32.432 57.6273 33.7897 57.1514 35.3574C56.6755 36.9251 56.4375 38.6188 56.4375 40.4385V42.6641C56.4375 44.5397 56.6755 46.2614 57.1514 47.8291C57.6273 49.3968 58.3691 50.7546 59.377 51.9023C60.3848 53.0221 61.6725 53.904 63.2402 54.5479C64.8079 55.1917 66.6976 55.5137 68.9092 55.5137Z" fill="white"/>
<path d="M107.878 63.2822V39.8086C107.878 37.9329 108.088 36.2812 108.508 34.8535C108.956 33.3978 109.656 32.18 110.607 31.2002C111.559 30.2204 112.777 29.4785 114.261 28.9746C115.772 28.4707 117.606 28.2188 119.762 28.2188C121.749 28.2188 123.443 28.4567 124.843 28.9326C126.271 29.3805 127.432 30.0524 128.328 30.9482C129.252 31.8161 129.924 32.8939 130.344 34.1816C130.764 35.4414 130.974 36.8831 130.974 38.5068V63.2822H142.102V37.751C142.102 34.8675 141.654 32.278 140.758 29.9824C139.89 27.6589 138.63 25.6992 136.979 24.1035C135.327 22.4798 133.311 21.234 130.932 20.3662C128.58 19.4984 125.907 19.0645 122.911 19.0645C121.371 19.0645 119.986 19.1344 118.754 19.2744C117.522 19.4144 116.416 19.6104 115.437 19.8623C114.457 20.1143 113.575 20.4082 112.791 20.7441C112.035 21.0521 111.349 21.416 110.733 21.8359C110.146 22.2279 109.614 22.6478 109.138 23.0957C108.69 23.5156 108.27 23.9495 107.878 24.3975L107.584 19.8203H96.75V63.2822H107.878Z" fill="white"/>
<path d="M171.622 64.0381C175.177 64.0381 178.299 63.4782 180.986 62.3584C183.674 61.2106 185.927 59.6709 187.747 57.7393C189.567 55.7796 190.938 53.498 191.862 50.8945C192.814 48.291 193.29 45.5055 193.29 42.5381V40.8584C193.29 37.751 192.814 34.8675 191.862 32.208C190.938 29.5205 189.567 27.2109 187.747 25.2793C185.927 23.3477 183.674 21.8359 180.986 20.7441C178.299 19.6243 175.177 19.0645 171.622 19.0645C170.306 19.0645 169.075 19.1484 167.927 19.3164C166.779 19.4564 165.715 19.6523 164.735 19.9043C163.784 20.1562 162.902 20.4642 162.09 20.8281C161.306 21.1921 160.592 21.598 159.948 22.0459C159.304 22.4658 158.73 22.9277 158.227 23.4316C157.751 23.9076 157.331 24.3975 156.967 24.9014L156.883 0H145.881V63.2822H156.883V57.9492C157.247 58.4531 157.681 58.957 158.185 59.4609C158.716 59.9368 159.304 60.3988 159.948 60.8467C160.592 61.2946 161.306 61.7145 162.09 62.1064C162.902 62.4984 163.798 62.8343 164.777 63.1143C165.757 63.3942 166.807 63.6182 167.927 63.7861C169.075 63.9541 170.306 64.0381 171.622 64.0381ZM169.48 55.5137C167.297 55.5137 165.407 55.1777 163.812 54.5059C162.216 53.834 160.9 52.9102 159.864 51.7344C158.856 50.5586 158.101 49.1729 157.597 47.5771C157.121 45.9535 156.883 44.2038 156.883 42.3281V40.7744C156.883 38.8988 157.121 37.1631 157.597 35.5674C158.101 33.9437 158.856 32.5439 159.864 31.3682C160.9 30.1644 162.216 29.2266 163.812 28.5547C165.407 27.8828 167.297 27.5469 169.48 27.5469C171.692 27.5469 173.582 27.8688 175.149 28.5127C176.745 29.1566 178.047 30.0524 179.055 31.2002C180.062 32.348 180.79 33.7057 181.238 35.2734C181.714 36.8411 181.952 38.5628 181.952 40.4385V42.6641C181.952 44.5397 181.714 46.2614 181.238 47.8291C180.79 49.3968 180.062 50.7546 179.055 51.9023C178.047 53.0221 176.745 53.904 175.149 54.5479C173.582 55.1917 171.692 55.5137 169.48 55.5137Z" fill="white"/>
<path d="M219.451 64.0381C223.538 64.0381 227.08 63.4502 230.075 62.2744C233.071 61.0986 235.548 59.5309 237.508 57.5713C239.495 55.5837 240.965 53.2881 241.917 50.6846C242.869 48.0531 243.345 45.2956 243.345 42.4121V40.5225C243.345 38.7028 243.121 36.9111 242.673 35.1475C242.253 33.3558 241.609 31.6621 240.741 30.0664C239.873 28.4707 238.782 27.001 237.466 25.6572C236.15 24.3135 234.596 23.1517 232.805 22.1719C231.041 21.1921 229.039 20.4362 226.8 19.9043C224.56 19.3444 222.069 19.0645 219.325 19.0645C216.61 19.0645 214.132 19.3444 211.893 19.9043C209.653 20.4362 207.651 21.1921 205.888 22.1719C204.124 23.1517 202.584 24.3135 201.269 25.6572C199.953 27.001 198.861 28.4707 197.993 30.0664C197.125 31.6621 196.481 33.3558 196.062 35.1475C195.642 36.9111 195.432 38.7028 195.432 40.5225V42.4121C195.432 45.2956 195.908 48.0531 196.859 50.6846C197.839 53.2881 199.309 55.5837 201.269 57.5713C203.256 59.5309 205.762 61.0986 208.785 62.2744C211.809 63.4502 215.364 64.0381 219.451 64.0381ZM219.283 55.5557C217.072 55.5557 215.168 55.2477 213.572 54.6318C212.005 54.016 210.703 53.1481 209.667 52.0283C208.659 50.9085 207.903 49.6068 207.399 48.123C206.924 46.6113 206.686 44.9736 206.686 43.21V40.1865C206.686 38.4229 206.924 36.7712 207.399 35.2314C207.903 33.6917 208.673 32.362 209.709 31.2422C210.745 30.0944 212.061 29.1986 213.656 28.5547C215.28 27.8828 217.198 27.5469 219.409 27.5469C221.621 27.5469 223.524 27.8828 225.12 28.5547C226.716 29.1986 228.032 30.0944 229.067 31.2422C230.103 32.39 230.859 33.7337 231.335 35.2734C231.839 36.7852 232.091 38.4229 232.091 40.1865V43.21C232.091 44.9456 231.839 46.5693 231.335 48.0811C230.831 49.5648 230.047 50.8665 228.983 51.9863C227.92 53.1061 226.59 53.988 224.994 54.6318C223.398 55.2477 221.495 55.5557 219.283 55.5557Z" fill="white"/>
<path d="M257.916 63.2822V19.8203H246.83V63.2822H257.916Z" fill="white"/>
</svg>
