<?xml version="1.0" encoding="utf-8"?>
<!-- Generator: Adobe Illustrator 17.0.2, SVG Export Plug-In . SVG Version: 6.00 Build 0)  -->
<!DOCTYPE svg PUBLIC "-//W3C//DTD SVG 1.1 Tiny//EN" "http://www.w3.org/Graphics/SVG/1.1/DTD/svg11-tiny.dtd">
<svg version="1.1" baseProfile="tiny" id="Layer_1" xmlns="http://www.w3.org/2000/svg" xmlns:xlink="http://www.w3.org/1999/xlink"
	 x="0px" y="0px" width="420px" height="80px" viewBox="0 0 420 80" xml:space="preserve">
<path fill="#FFFFFF" d="M359.984,29.457c-2.454-2.329-5.886-3.493-10.301-3.493c-3.153,0-5.922,0.671-8.303,2.011
	c-2.383,1.341-4.362,3.106-5.939,5.292c-1.577,2.188-2.769,4.675-3.574,7.462c-0.806,2.788-1.209,5.628-1.209,8.521
	c0,2.894,0.402,5.734,1.209,8.521c0.805,2.788,1.997,5.276,3.574,7.462c1.577,2.188,3.556,3.953,5.939,5.292
	c2.381,1.341,5.15,2.011,8.303,2.011c2.031,0,3.958-0.387,5.781-1.164c1.821-0.776,3.432-1.852,4.835-3.228
	c1.401-1.376,2.557-3.017,3.468-4.922c0.91-1.905,1.472-3.986,1.682-6.245h6.622c-0.912,6.634-3.329,11.802-7.253,15.506
	c-3.925,3.705-8.97,5.557-15.135,5.557c-4.135,0-7.796-0.759-10.984-2.276c-3.189-1.517-5.869-3.581-8.041-6.192
	c-2.173-2.61-3.82-5.663-4.94-9.156c-1.122-3.493-1.682-7.214-1.682-11.167c0-3.951,0.56-7.674,1.682-11.167
	c1.12-3.493,2.767-6.544,4.94-9.156c2.171-2.61,4.851-4.692,8.041-6.245c3.188-1.551,6.849-2.329,10.984-2.329
	c5.815,0,10.737,1.553,14.768,4.657c4.029,3.106,6.428,7.798,7.2,14.077h-6.622C364.117,34.997,362.436,31.786,359.984,29.457z"/>
<path fill="#FFFFFF" d="M382.582,0.984v30.378h0.21c1.261-3.316,3.503-5.98,6.727-7.991c3.222-2.011,6.761-3.017,10.616-3.017
	c3.784,0,6.954,0.494,9.512,1.482c2.557,0.989,4.607,2.382,6.149,4.181c1.54,1.799,2.628,4.006,3.258,6.615
	c0.631,2.611,0.946,5.54,0.946,8.785v35.141h-6.622V42.476c0-2.329-0.21-4.499-0.631-6.51c-0.42-2.011-1.156-3.758-2.207-5.239
	c-1.051-1.482-2.47-2.646-4.257-3.493c-1.787-0.847-4.012-1.27-6.674-1.27c-2.664,0-5.029,0.476-7.095,1.429
	c-2.068,0.953-3.82,2.259-5.255,3.916c-1.437,1.659-2.559,3.635-3.364,5.927c-0.806,2.294-1.245,4.781-1.314,7.462v31.86h-6.622
	V0.984H382.582z"/>
<path fill-rule="evenodd" fill="#FFFFFF" d="M307,41c5.523,0,10,4.477,10,10c0,5.523-4.477,10-10,10c-5.523,0-10-4.477-10-10
	C297,45.477,301.477,41,307,41z"/>
<path fill="#FFFFFF" d="M0,32.418V22.157h9.181v-4.32c0-4.969,1.548-9.036,4.645-12.206c3.095-3.168,7.777-4.753,14.042-4.753
	c1.367,0,2.736,0.054,4.104,0.162c1.367,0.108,2.7,0.199,3.996,0.27V12.76c-1.801-0.216-3.672-0.324-5.617-0.324
	c-2.089,0-3.583,0.486-4.483,1.458c-0.901,0.972-1.35,2.611-1.35,4.915v3.348h10.585v10.261H24.519V78H9.181V32.418H0z"/>
<path fill="#FFFFFF" d="M38.452,30.366c1.583-2.376,3.6-4.283,6.049-5.725c2.447-1.44,5.201-2.466,8.263-3.078
	c3.06-0.611,6.138-0.918,9.235-0.918c2.808,0,5.652,0.199,8.533,0.594c2.879,0.397,5.509,1.171,7.885,2.322
	c2.376,1.153,4.321,2.754,5.833,4.807s2.268,4.771,2.268,8.155v29.056c0,2.521,0.144,4.933,0.432,7.237
	c0.287,2.305,0.791,4.034,1.512,5.185H72.908c-0.289-0.864-0.523-1.745-0.702-2.646c-0.181-0.9-0.307-1.818-0.378-2.754
	c-2.449,2.521-5.33,4.285-8.641,5.293c-3.313,1.007-6.697,1.512-10.153,1.512c-2.665,0-5.149-0.324-7.453-0.972
	c-2.305-0.648-4.321-1.656-6.049-3.024c-1.728-1.367-3.078-3.095-4.05-5.185c-0.972-2.088-1.458-4.572-1.458-7.453
	c0-3.168,0.557-5.779,1.674-7.831c1.116-2.052,2.555-3.689,4.321-4.915c1.764-1.224,3.78-2.142,6.049-2.754
	c2.268-0.611,4.554-1.097,6.859-1.458c2.304-0.36,4.572-0.648,6.805-0.864c2.231-0.216,4.212-0.54,5.941-0.972
	c1.728-0.432,3.095-1.062,4.104-1.89c1.008-0.827,1.475-2.034,1.404-3.618c0-1.656-0.27-2.97-0.81-3.942
	c-0.54-0.972-1.261-1.728-2.16-2.268c-0.901-0.54-1.944-0.9-3.132-1.08c-1.188-0.179-2.467-0.27-3.834-0.27
	c-3.024,0-5.401,0.648-7.129,1.944c-1.728,1.296-2.737,3.456-3.024,6.481H35.752C35.968,35.731,36.867,32.742,38.452,30.366z
	 M68.75,52.023c-0.972,0.324-2.017,0.594-3.132,0.81c-1.117,0.216-2.287,0.397-3.511,0.54c-1.225,0.145-2.449,0.324-3.672,0.54
	c-1.153,0.216-2.287,0.505-3.402,0.864c-1.117,0.361-2.089,0.847-2.916,1.458c-0.829,0.613-1.495,1.387-1.998,2.322
	c-0.505,0.937-0.756,2.125-0.756,3.564c0,1.369,0.251,2.521,0.756,3.456c0.503,0.937,1.188,1.674,2.052,2.214
	c0.864,0.54,1.872,0.918,3.024,1.134c1.151,0.216,2.339,0.324,3.564,0.324c3.024,0,5.364-0.503,7.021-1.512
	c1.656-1.008,2.879-2.214,3.672-3.618c0.792-1.404,1.278-2.825,1.458-4.267c0.179-1.44,0.27-2.592,0.27-3.456v-5.725
	C70.532,51.25,69.722,51.699,68.75,52.023z"/>
<path fill="#FFFFFF" d="M107.579,22.157v7.777h0.324c1.944-3.24,4.464-5.598,7.561-7.075c3.095-1.475,6.265-2.214,9.505-2.214
	c4.105,0,7.47,0.559,10.099,1.674c2.628,1.117,4.699,2.665,6.211,4.645c1.512,1.981,2.574,4.393,3.186,7.237
	c0.611,2.846,0.918,5.995,0.918,9.451V78h-15.338V46.46c0-4.607-0.721-8.047-2.16-10.315c-1.441-2.268-3.996-3.403-7.669-3.403
	c-4.177,0-7.201,1.242-9.073,3.727c-1.873,2.484-2.808,6.572-2.808,12.259V78H92.998V22.157H107.579z"/>
<path fill="#FFFFFF" d="M191.829,43.328c-0.505-2.16-1.296-4.067-2.376-5.725c-1.08-1.656-2.43-2.97-4.051-3.943
	c-1.62-0.972-3.583-1.458-5.887-1.458c-2.233,0-4.177,0.486-5.833,1.458c-1.657,0.972-3.024,2.287-4.104,3.943
	c-1.08,1.657-1.873,3.564-2.376,5.725c-0.505,2.16-0.756,4.428-0.756,6.805c0,2.305,0.251,4.537,0.756,6.697
	c0.503,2.16,1.296,4.069,2.376,5.725c1.08,1.657,2.447,2.97,4.104,3.942c1.656,0.972,3.6,1.458,5.833,1.458
	c2.304,0,4.267-0.486,5.887-1.458c1.62-0.972,2.97-2.285,4.051-3.942c1.08-1.656,1.872-3.564,2.376-5.725
	c0.503-2.16,0.756-4.391,0.756-6.697C192.585,47.756,192.332,45.488,191.829,43.328z M166.985,0.878v28.083h0.216
	c1.872-2.879,4.41-4.986,7.615-6.319c3.203-1.332,6.535-1.998,9.991-1.998c2.808,0,5.579,0.577,8.317,1.728
	c2.736,1.153,5.202,2.916,7.399,5.293c2.196,2.376,3.978,5.419,5.347,9.127c1.367,3.709,2.052,8.119,2.052,13.232
	c0,5.114-0.685,9.524-2.052,13.232c-1.369,3.709-3.151,6.751-5.347,9.127c-2.197,2.376-4.663,4.142-7.399,5.293
	c-2.738,1.151-5.509,1.728-8.317,1.728c-4.105,0-7.777-0.648-11.017-1.944c-3.24-1.296-5.689-3.492-7.345-6.589h-0.216V78h-14.582
	V0.878H166.985z"/>
<path fill="#FFFFFF" d="M226.5,56.667c0.432,2.125,1.169,4.034,2.214,5.725c1.043,1.693,2.43,3.043,4.158,4.05
	c1.728,1.009,3.889,1.512,6.481,1.512c2.592,0,4.769-0.503,6.535-1.512c1.764-1.008,3.168-2.358,4.212-4.05
	c1.043-1.691,1.782-3.6,2.214-5.725c0.432-2.123,0.648-4.302,0.648-6.535c0-2.231-0.216-4.429-0.648-6.589
	c-0.432-2.16-1.171-4.067-2.214-5.725c-1.045-1.656-2.449-3.006-4.212-4.05c-1.765-1.043-3.943-1.566-6.535-1.566
	c-2.592,0-4.753,0.523-6.481,1.566c-1.728,1.045-3.115,2.395-4.158,4.05c-1.045,1.657-1.782,3.564-2.214,5.725
	c-0.432,2.16-0.648,4.358-0.648,6.589C225.852,52.365,226.068,54.544,226.5,56.667z M212.566,37.981
	c1.367-3.635,3.311-6.732,5.833-9.289c2.52-2.555,5.544-4.536,9.073-5.941c3.527-1.404,7.488-2.106,11.882-2.106
	c4.391,0,8.371,0.702,11.935,2.106c3.564,1.404,6.606,3.385,9.127,5.941c2.52,2.557,4.464,5.654,5.833,9.289
	c1.367,3.637,2.052,7.688,2.052,12.152c0,4.466-0.685,8.498-2.052,12.097c-1.369,3.602-3.313,6.68-5.833,9.235
	c-2.521,2.557-5.563,4.52-9.127,5.887c-3.564,1.367-7.544,2.052-11.935,2.052c-4.393,0-8.354-0.685-11.882-2.052
	c-3.529-1.367-6.553-3.33-9.073-5.887c-2.521-2.555-4.466-5.634-5.833-9.235c-1.369-3.6-2.052-7.632-2.052-12.097
	C210.514,45.668,211.198,41.618,212.566,37.981z"/>
<path fill="#FFFFFF" d="M288.607,22.157V78h-15.338V22.157H288.607z"/>
</svg>
